<svg xmlns="http://www.w3.org/2000/svg" width="20" height="20" viewBox="0 0 20 20">
    <g fill="#EEEFF6" fill-rule="evenodd">
        <path d="M10 1.802c2.67 0 2.987.01 4.04.058 1.14.052 2.195.28 3.008 1.093.812.812 1.04 1.868 1.092 3.006.048 1.054.058 1.371.058 4.041 0 2.67-.01 2.987-.058 4.04-.052 1.14-.28 2.195-1.093 3.008-.812.812-1.868 1.04-3.006 1.092-1.054.048-1.371.058-4.041.058-2.67 0-2.987-.01-4.04-.058-1.14-.052-2.195-.28-3.007-1.093-.813-.812-1.041-1.868-1.093-3.006-.048-1.054-.058-1.371-.058-4.041 0-2.67.01-2.987.058-4.04.052-1.14.28-2.195 1.093-3.007.812-.813 1.868-1.041 3.006-1.093C7.013 1.812 7.33 1.802 10 1.802M10 0C7.284 0 6.943.012 5.877.06 4.252.134 2.824.532 1.678 1.678.533 2.824.134 4.252.06 5.877.012 6.943 0 7.284 0 10s.012 3.057.06 4.123c.074 1.625.472 3.053 1.618 4.199 1.146 1.146 2.574 1.544 4.199 1.618 1.066.048 1.407.06 4.123.06s3.057-.012 4.123-.06c1.625-.074 3.053-.473 4.199-1.618 1.146-1.146 1.544-2.574 1.618-4.199.048-1.066.06-1.407.06-4.123s-.012-3.057-.06-4.123c-.074-1.625-.473-3.053-1.618-4.199C17.176.533 15.748.134 14.123.06 13.057.012 12.716 0 10 0z"/>
        <path d="M10 5a5 5 0 1 0 0 10 5 5 0 0 0 0-10zm0 8.246a3.246 3.246 0 1 1 0-6.492 3.246 3.246 0 0 1 0 6.492z"/>
        <circle cx="15" cy="5" r="1"/>
    </g>
</svg>
