<svg xmlns="http://www.w3.org/2000/svg" width="16" height="14" viewBox="0 0 16 14">
    <path fill="#fff" fill-rule="nonzero" d="M15.968.684a.338.338 0 0 0-.232-.253 1.192 1.192 0 0 0-.63.045S1.087 5.514.286 6.072c-.172.121-.23.19-.259.272-.138.4.293.573.293.573l3.613 1.177a.388.388 0 0 0 .183-.011c.822-.519 8.27-5.222 8.7-5.38.068-.02.118 0 .1.049-.172.6-6.606 6.319-6.641 6.354a.138.138 0 0 0-.049.118l-.337 3.528s-.142 1.1.956 0a30.66 30.66 0 0 1 1.9-1.738c1.242.858 2.579 1.806 3.156 2.3a1 1 0 0 0 .732.283.825.825 0 0 0 .7-.622S15.894 2.7 15.979 1.317C15.987 1.182 16 1.1 16 1a1.177 1.177 0 0 0-.032-.316z"/>
</svg>
