<svg xmlns="http://www.w3.org/2000/svg" width="20" height="16" viewBox="0 0 20 16">
    <path fill="#EEEFF6" fill-rule="evenodd" d="M20 1.897c-.75.33-1.5.577-2.333.66A4.4 4.4 0 0 0 19.5.33c-.833.495-1.667.825-2.583.99a4.053 4.053 0 0 0-3-1.32c-2.25 0-4.084 1.814-4.084 4.041 0 .33 0 .66.084.907-3.5-.164-6.5-1.814-8.5-4.288C1 1.32.833 1.98.833 2.722c0 1.402.75 2.639 1.834 3.381-.667 0-1.334-.165-1.834-.495v.083c0 1.98 1.417 3.629 3.25 3.958-.333.083-.666.165-1.083.165-.25 0-.5 0-.75-.082.5 1.65 2 2.804 3.833 2.804C4.667 13.608 2.917 14.268 1 14.268c-.333 0-.667 0-1-.082C1.833 15.34 4 16 6.25 16c7.583 0 11.667-6.186 11.667-11.546v-.495c.833-.578 1.5-1.32 2.083-2.062z"/>
</svg>
