<svg xmlns="http://www.w3.org/2000/svg" width="28" height="18" viewBox="0 0 34 25">
    <g fill="none" fill-rule="nonzero">
        <path fill="#FFF" d="M33.66 5.22s-.332-2.352-1.351-3.388C31.016.473 29.567.466 28.902.387 24.144.042 17.007.042 17.007.042h-.014s-7.137 0-11.895.345c-.665.08-2.113.086-3.407 1.445C.671 2.868.34 5.22.34 5.22S0 7.981 0 10.742v2.589c0 2.761.34 5.522.34 5.522s.332 2.352 1.351 3.387c1.294 1.36 2.992 1.316 3.75 1.459 2.72.262 11.559.343 11.559.343s7.144-.011 11.902-.356c.665-.08 2.114-.087 3.407-1.446 1.02-1.035 1.351-3.387 1.351-3.387s.34-2.761.34-5.522v-2.59c0-2.76-.34-5.522-.34-5.522z"/>
        <path fill="rgb(0,0,0,1)" d="M14.002 17.042l-.002-10 9 5.017z"/>
    </g>
</svg>
