<svg xmlns="http://www.w3.org/2000/svg" width="113" height="37" viewBox="0 0 113 37">
    <g fill="#FFF" fill-rule="nonzero">
        <path d="M48.381 15.822v11.07h-2.775v-11.07H42v-2.93h10v2.93zM58.678 26.888c-.722.03-1.421-.282-1.93-.863-.508-.58-.778-1.374-.745-2.19v-7.88c-.036-.823.238-1.625.753-2.208.516-.583 1.225-.892 1.953-.852h4.582c.728-.04 1.437.27 1.953.852.515.583.789 1.385.753 2.209v7.879c.034.822-.24 1.622-.756 2.204-.515.581-1.223.89-1.95.85h-4.613zm.037-3.656c-.01.19.05.375.17.51a.546.546 0 0 0 .45.19h3.22a.546.546 0 0 0 .45-.19.709.709 0 0 0 .168-.51V16.58a.709.709 0 0 0-.169-.509.546.546 0 0 0-.45-.191h-3.22a.546.546 0 0 0-.45.191.709.709 0 0 0-.169.51v6.652zM85 26.892h-2.768v-8.77l-3.172 6.435h-2.12l-3.178-6.436v8.77H71v-14h3.212L78 20.57l3.781-7.677H85zM91.536 26.892v-4.695L87 12.892h3.227l2.776 5.74 2.776-5.74H99l-4.53 9.305v4.695zM103.535 23.344l-1.233 3.548H99l5.14-14h3.72l5.14 14h-3.432l-1.24-3.548h-4.793zm2.443-7.018l-1.557 4.052h3.064l-1.507-4.052zM5.384 27.123h1.908v-1.896H5.384v1.896zm0-3.7h1.908v-1.89H5.384v1.89zm0-3.59h1.908v-1.895H5.384v1.895zm0-3.603h1.908v-1.889H5.384v1.89zm.19 14.164h1.528v-1.512H5.574v1.512zm-3.35-10.88h1.271v-1.258H2.223v1.259zm0-3.595h1.271v-1.26H2.223v1.26zm0-3.246h1.271v-1.246H2.223v1.246zm3.16-.15h1.908v-1.895H5.384v1.896zm7.83 23.888h.656v-.649h-.656v.65zm-10.99-13.3h1.271v-1.26H2.223v1.26zm6.301-6.563h2.551v-2.525h-2.55v2.525zm0 3.597h2.551v-2.519h-2.55v2.519zm0-7.29h2.551V10.33h-2.55v2.525zm0 14.58h2.551v-2.526h-2.55v2.525zm.322 3.381h1.908v-1.895H8.866l-.02 1.895zm-.322-7.075h2.551v-2.519h-2.55v2.519zm.656 10.217h1.272v-1.26H9.181v1.26zM18.12 3.112h-1.273V4.37h1.273v-1.26zm-4.27-1.753h-.655v.65h.655v-.65zm3.935-.467h-.656v.649h.656V.89zm4.59 5.842h-1.901v1.889h1.915l-.013-1.89zm-3.934-.468h-1.915v1.896h1.915V6.266zM2.223 26.39h1.272v-1.298H2.223v1.298zM22.068 3.573h-1.273V4.87h1.273V3.573zm7.325 3.81h-1.535v1.512h1.535V7.383zm-3.607-3.57h-1.312v1.253h1.312V3.813zm.315 3.148h-1.909V8.85h1.909V6.96zM12.9 34.224h1.272v-1.292H12.9v1.292zM7.102 7.383H5.574v1.512h1.528V7.383zM0 22.793h.656v-.65H0v.65zm0-3.596h.656v-.65H0v.65zM0 15.6h.656v-.65H0v.65zm10.775-8.647H8.866v1.89h1.909v-1.89zm3.712-.22h-1.909v1.889h1.909v-1.89zm-.315-3.148H12.9v1.298h1.272V3.586zm-3.719.233H9.181v1.247h1.272V3.819zm11.3-2.46h-.656v.65h.656v-.65zm6.105 29.035h1.535v-1.512h-1.535v1.512zm-3.987-2.96h2.551V24.91h-2.55v2.525zm3.797-4.011h1.915v-1.89h-1.915v1.89zm0-3.59h1.915v-1.895h-1.915v1.895zm0-3.603h1.915v-1.889h-1.915v1.89zm-3.797 7.51h2.551v-2.518h-2.55v2.519zm0-3.595h2.551v-2.519h-2.55v2.519zm0-3.597h2.551v-2.525h-2.55v2.525zm0-3.693h2.551V10.33h-2.55v2.525zm3.797 14.28h1.915v-1.908h-1.915v1.909zm3.81-14.449h1.312v-1.26h-1.312v1.26zm2.866 6.491H35v-.649h-.656v.65zm0 3.596H35v-.649h-.656v.65zm0-7.789v.65H35v-.65h-.656zm-2.866 8.127h1.312v-1.26h-1.312v1.26zm-3.81-10.574h1.915v-1.909h-1.915v1.909zm3.81 3.382h1.312v-1.26h-1.312v1.26zm0 10.425h1.312v-1.299h-1.312v1.299zm0-6.83h1.312v-1.258h-1.312v1.259zm-19.208.65h2.551v-2.538h-2.564l.013 2.538zm4.59 14.514h1.273V33.38h-1.286l.014 1.298zm-.32-3.148h1.914v-1.908h-1.928l.013 1.908zm.655 5.362h.656v-.65h-.656v.65zm-.984-8.99h2.545v-2.526H16.21v2.525zm-3.633 3.141h1.909v-1.889h-1.909v1.89zm11.614-.227h1.909v-1.895h-1.909v1.895zM12.257 12.388h2.55V9.869h-2.55v2.519zm0 11.878h2.55v-2.518h-2.55v2.518zm3.935-11.878h2.564V9.869H16.21l-.02 2.519zM12.257 27.9h2.55v-2.525h-2.55v2.525zm7.87-15.513h2.544V9.869h-2.512l-.033 2.519zm0 7.789h2.544v-2.551h-2.512l-.033 2.551zm4.347 13.813h1.312v-1.292h-1.312v1.292zm-4.315-9.73h2.545v-2.512h-2.545v2.512zm.656 9.925h1.272v-1.253h-1.292l.02 1.253zm.315 2.22h.656v-.65h-.656v.65zm-.97-8.504h2.544v-2.525h-2.545v2.525zm.314 3.142h1.915v-1.889h-1.915v1.89z"/>
    </g>
</svg>
